<?xml version="1.0" standalone="no"?>
<!DOCTYPE svg PUBLIC "-//W3C//DTD SVG 20010904//EN"
 "http://www.w3.org/TR/2001/REC-SVG-20010904/DTD/svg10.dtd">
<svg version="1.0" xmlns="http://www.w3.org/2000/svg"
 width="700.000000pt" height="700.000000pt" viewBox="0 0 700.000000 700.000000"
 preserveAspectRatio="xMidYMid meet">
<metadata>
Created by potrace 1.11, written by Peter Selinger 2001-2013
</metadata>
<g transform="translate(0.000000,700.000000) scale(0.100000,-0.100000)"
fill="#000000" stroke="none">
<path d="M0 3500 l0 -3500 3500 0 3500 0 0 3500 0 3500 -3500 0 -3500 0 0
-3500z m5548 2928 c28 -28 1 -249 -47 -390 -61 -179 -161 -346 -304 -508 -191
-216 -328 -303 -556 -354 -198 -45 -254 -48 -896 -56 -698 -8 -665 -4 -835
-88 -78 -38 -110 -61 -181 -132 -95 -94 -132 -157 -150 -254 -19 -107 20 -240
96 -325 88 -97 213 -172 360 -214 210 -61 327 -73 840 -87 375 -9 432 -16 609
-75 357 -117 667 -385 839 -723 112 -220 156 -388 164 -632 16 -481 -91 -906
-312 -1235 -277 -414 -650 -615 -1230 -665 -143 -12 -592 -12 -865 -1 -229 10
-575 -1 -750 -24 -255 -32 -516 -91 -731 -163 -63 -21 -120 -37 -127 -34 -17
5 -15 100 3 208 23 132 71 272 142 413 186 370 463 619 796 715 210 61 310 64
1132 37 346 -12 400 -12 477 2 236 41 342 163 383 436 35 230 2 367 -117 483
-147 145 -365 200 -995 253 -569 47 -693 73 -913 192 -376 201 -696 574 -833
969 -59 170 -72 248 -71 439 1 193 8 233 76 425 125 350 238 540 443 745 259
259 596 410 1015 455 55 6 326 9 640 8 588 -3 718 4 1140 58 262 33 590 91
695 123 42 13 49 13 63 -1z"/>
</g>
</svg>
