<?xml version="1.0" standalone="no"?>
<!DOCTYPE svg PUBLIC "-//W3C//DTD SVG 20010904//EN"
 "http://www.w3.org/TR/2001/REC-SVG-20010904/DTD/svg10.dtd">
<svg version="1.0" xmlns="http://www.w3.org/2000/svg"
 width="4080.000000pt" height="4080.000000pt" viewBox="0 0 4080.000000 4080.000000"
 preserveAspectRatio="xMidYMid meet">
<metadata>
Created by potrace 1.11, written by Peter Selinger 2001-2013
</metadata>
<g transform="translate(0.000000,4080.000000) scale(0.100000,-0.100000)"
fill="#000000" stroke="none">
<path d="M23955 39729 c-928 -57 -1794 -556 -2310 -1334 -282 -425 -434 -842
-497 -1370 -10 -88 -13 -567 -13 -2395 l0 -2285 240 -3 c556 -7 2011 47 2635
98 63 5 121 10 128 10 9 0 12 736 12 3645 l0 3645 -32 -1 c-18 -1 -91 -6 -163
-10z"/>
<path d="M19900 39723 c-164 -16 -253 -28 -364 -49 -1169 -227 -2114 -1155
-2360 -2321 -64 -306 -60 -104 -63 -2772 l-3 -2424 27 6 c16 4 81 18 145 32
482 103 1209 179 1973 206 287 10 445 8 748 -7 l117 -6 0 3671 0 3671 -92 -2
c-51 0 -109 -3 -128 -5z"/>
<path d="M29049 32746 c-2 -2 -139 -36 -304 -74 -1629 -382 -3584 -650 -5445
-747 -1021 -53 -2324 -54 -3135 -4 -271 17 -1056 23 -1315 10 -417 -21 -633
-42 -1019 -97 -2881 -414 -4831 -2040 -5821 -4854 -314 -892 -423 -1480 -407
-2185 7 -277 16 -397 53 -655 175 -1236 771 -2461 1731 -3558 162 -186 538
-564 708 -711 572 -499 1144 -878 1731 -1150 812 -375 1357 -474 3474 -631
1402 -104 1959 -165 2571 -286 1405 -275 2170 -786 2438 -1627 83 -260 106
-453 98 -811 -14 -627 -129 -1178 -332 -1591 -279 -570 -718 -881 -1415 -1004
-335 -59 -808 -74 -1520 -47 -239 10 -669 21 -955 26 -496 9 -624 15 -1270 60
-1094 76 -1680 78 -2294 10 -206 -23 -492 -68 -504 -80 -5 -4 159 -473 363
-1041 l371 -1034 -25 -155 c-89 -541 -46 -1062 134 -1600 98 -293 281 -668
419 -857 l31 -43 171 0 c148 0 761 -21 1754 -60 431 -18 1825 -24 2160 -11
1387 55 2421 246 3295 608 958 396 1702 965 2405 1838 973 1209 1511 2703
1639 4550 42 602 46 1179 12 1525 -129 1282 -604 2471 -1370 3425 -211 263
-548 616 -776 811 -938 806 -2053 1310 -3290 1488 -364 53 -450 56 -1500 66
-1038 10 -1486 21 -1840 46 -705 49 -1282 149 -1790 310 -80 25 -201 61 -270
79 -301 79 -524 191 -845 420 -494 353 -731 651 -885 1114 -72 215 -84 296
-84 551 0 254 11 330 84 555 172 527 626 1046 1240 1416 259 156 598 306 867
383 257 74 453 108 733 128 225 16 1515 16 2530 0 1216 -19 1983 5 2680 83
932 104 1627 309 2100 619 371 244 999 854 1402 1362 690 869 1125 1850 1233
2776 31 270 31 658 1 658 -7 0 -15 -2 -17 -4z"/>
<path d="M21890 7620 c-822 -60 -1496 -109 -1497 -109 -2 -1 -3 -1572 -3
-3493 l0 -3491 148 6 c1176 52 2224 807 2660 1917 75 189 137 423 174 655 l22
140 3 2243 c2 1233 0 2241 -4 2241 -5 -1 -681 -50 -1503 -109z"/>
<path d="M16735 7630 c-126 -5 -263 -12 -302 -15 l-73 -7 0 -3520 0 -3521 143
6 c495 22 992 173 1417 431 713 434 1228 1162 1389 1966 59 295 55 120 58
2463 l3 2147 -92 0 c-51 0 -381 12 -733 26 -699 27 -1449 37 -1810 24z"/>
</g>
</svg>
