<?xml version="1.0" standalone="no"?>
<!DOCTYPE svg PUBLIC "-//W3C//DTD SVG 20010904//EN"
 "http://www.w3.org/TR/2001/REC-SVG-20010904/DTD/svg10.dtd">
<svg version="1.0" xmlns="http://www.w3.org/2000/svg"
 width="4080.000000pt" height="4080.000000pt" viewBox="0 0 4080.000000 4080.000000"
 preserveAspectRatio="xMidYMid meet">
<metadata>
Created by potrace 1.11, written by Peter Selinger 2001-2013
</metadata>
<g transform="translate(0.000000,4080.000000) scale(0.100000,-0.100000)"
fill="#000000" stroke="none">
<path d="M20048 39735 c-2 -2 -52 -5 -113 -8 -116 -6 -184 -13 -231 -22 -16
-3 -49 -8 -74 -11 -164 -20 -474 -108 -670 -190 -48 -20 -321 -156 -355 -176
-132 -81 -335 -222 -391 -273 -6 -5 -36 -30 -65 -55 -70 -58 -252 -240 -309
-309 -25 -29 -49 -59 -55 -65 -144 -161 -348 -501 -445 -741 -18 -44 -38 -93
-45 -110 -65 -153 -150 -506 -170 -710 -3 -33 -8 -80 -11 -105 -7 -49 -13
-4778 -6 -4797 2 -8 13 -8 35 -2 48 14 309 66 422 84 140 22 187 29 275 40
140 18 271 33 330 39 30 3 100 10 155 15 55 6 134 13 175 16 41 4 95 8 120 10
25 2 97 7 160 11 63 3 133 8 155 9 256 16 723 21 965 10 85 -4 170 -8 189 -9
l34 -1 0 3660 c-1 2013 -2 3667 -2 3675 -1 10 -12 15 -36 16 -19 1 -36 0 -37
-1z"/>
<path d="M24078 39735 c-2 -2 -57 -5 -123 -9 -154 -8 -211 -16 -410 -51 -75
-14 -241 -60 -360 -100 -545 -182 -1020 -516 -1396 -980 -205 -254 -401 -619
-507 -945 -28 -88 -75 -262 -85 -320 -16 -86 -27 -151 -32 -190 -3 -25 -8 -56
-10 -70 -15 -103 -18 -443 -19 -2452 -1 -1680 2 -2269 10 -2272 13 -5 934 2
1109 8 66 3 201 8 300 11 99 3 223 8 275 10 52 3 149 7 215 10 66 3 163 8 215
10 52 3 138 8 190 10 52 3 129 7 170 10 41 3 113 7 160 10 47 3 112 7 145 10
33 3 96 7 140 11 44 3 82 7 84 9 2 3 4 7123 2 7256 -1 23 -5 26 -36 26 -19 0
-36 -1 -37 -2z"/>
<path d="M28945 32719 c-60 -16 -139 -35 -175 -43 -150 -33 -347 -77 -370 -83
-14 -4 -27 -7 -30 -8 -3 0 -21 -4 -40 -8 -19 -4 -45 -9 -57 -12 -13 -3 -33 -7
-45 -10 -23 -5 -156 -32 -193 -39 -11 -2 -81 -16 -155 -31 -74 -15 -146 -29
-160 -31 -14 -3 -83 -16 -155 -29 -161 -30 -170 -32 -275 -50 -252 -43 -578
-96 -675 -110 -60 -9 -117 -18 -125 -20 -8 -2 -39 -7 -69 -10 -30 -4 -61 -8
-70 -10 -23 -4 -90 -14 -141 -20 -93 -13 -107 -14 -185 -25 -44 -6 -91 -13
-104 -15 -14 -3 -51 -7 -84 -10 -32 -4 -68 -8 -80 -11 -12 -2 -47 -7 -77 -9
-56 -6 -64 -7 -210 -25 -140 -18 -153 -19 -210 -25 -30 -3 -71 -7 -90 -10 -19
-2 -57 -6 -85 -9 -27 -3 -72 -8 -100 -11 -27 -3 -75 -7 -105 -10 -30 -2 -75
-7 -100 -9 -108 -12 -230 -24 -315 -31 -38 -3 -90 -8 -115 -10 -25 -2 -81 -7
-125 -10 -44 -3 -100 -8 -125 -10 -79 -7 -320 -23 -430 -30 -36 -2 -110 -6
-165 -10 -185 -11 -239 -14 -380 -20 -77 -3 -178 -8 -225 -10 -592 -27 -1883
-27 -2445 0 -49 3 -144 7 -210 10 -66 3 -151 8 -189 10 -433 24 -1087 20
-1461 -9 -33 -3 -103 -8 -155 -11 -52 -4 -102 -8 -110 -10 -8 -2 -53 -6 -100
-10 -47 -4 -93 -9 -102 -10 -9 -2 -43 -6 -75 -10 -32 -3 -69 -8 -83 -10 -14
-2 -77 -11 -140 -20 -63 -8 -126 -17 -140 -20 -14 -2 -68 -11 -120 -20 -102
-17 -106 -18 -190 -35 -30 -6 -67 -13 -81 -15 -15 -3 -73 -16 -130 -29 -57
-14 -115 -27 -129 -29 -37 -7 -295 -75 -375 -99 -38 -12 -74 -22 -80 -24 -58
-12 -395 -129 -575 -199 -252 -99 -670 -294 -789 -370 -22 -14 -43 -25 -46
-25 -21 0 -550 -335 -620 -393 -5 -4 -64 -49 -130 -99 -118 -90 -256 -202
-325 -264 -142 -127 -203 -185 -335 -318 -83 -83 -180 -184 -215 -225 -36 -41
-72 -81 -81 -90 -46 -47 -227 -276 -377 -476 -4 -5 -32 -46 -62 -90 -30 -44
-58 -81 -62 -83 -4 -2 -8 -10 -8 -17 0 -7 -3 -15 -7 -17 -10 -4 -94 -136 -200
-313 -46 -77 -88 -147 -93 -155 -5 -8 -20 -35 -33 -60 -14 -25 -43 -79 -66
-120 -92 -168 -361 -739 -361 -766 0 -3 -8 -24 -19 -47 -125 -278 -388 -1085
-452 -1387 -38 -181 -53 -258 -69 -367 -6 -43 -13 -89 -15 -103 -3 -14 -7 -56
-11 -95 -4 -38 -8 -72 -9 -75 -2 -3 -7 -57 -11 -120 -16 -212 -9 -768 11 -892
2 -13 6 -52 10 -88 7 -78 32 -255 45 -325 5 -27 12 -63 15 -80 2 -16 13 -73
24 -125 172 -818 534 -1645 1057 -2412 137 -200 344 -473 468 -619 17 -19 42
-49 56 -65 182 -214 462 -506 656 -684 136 -125 160 -146 259 -230 122 -104
106 -91 245 -200 63 -50 120 -94 125 -98 180 -141 583 -405 820 -537 127 -71
404 -207 535 -264 80 -35 159 -69 177 -77 17 -8 34 -14 38 -14 4 0 21 -6 38
-14 35 -16 316 -113 351 -121 11 -3 91 -23 176 -45 128 -33 305 -71 405 -86
11 -1 36 -5 55 -8 19 -4 49 -8 65 -10 17 -3 93 -14 170 -25 77 -11 163 -23
190 -26 45 -5 90 -11 255 -31 30 -3 71 -8 90 -9 19 -2 62 -6 95 -9 100 -11
137 -15 220 -21 44 -4 91 -8 105 -11 14 -2 67 -6 118 -9 51 -4 101 -8 110 -10
9 -1 67 -6 127 -10 61 -4 121 -8 135 -10 14 -2 70 -6 125 -10 55 -3 116 -8
135 -10 19 -3 76 -7 125 -10 50 -3 115 -8 145 -11 30 -2 89 -6 130 -9 41 -3
104 -7 140 -10 117 -9 184 -14 260 -20 41 -3 95 -7 120 -10 25 -2 79 -7 120
-10 41 -3 95 -8 120 -10 25 -3 72 -7 105 -10 105 -8 189 -16 215 -20 14 -2 58
-7 98 -10 41 -4 81 -8 91 -10 10 -2 50 -6 90 -10 40 -3 80 -8 89 -10 9 -1 46
-6 82 -10 36 -4 72 -9 81 -10 9 -2 40 -6 70 -10 30 -3 65 -8 79 -10 14 -2 45
-7 70 -10 44 -6 71 -10 130 -20 60 -10 86 -14 130 -20 25 -3 52 -8 60 -10 8
-2 31 -7 50 -10 75 -12 342 -68 475 -100 475 -113 873 -263 1178 -444 43 -25
86 -50 95 -56 106 -62 269 -194 391 -315 226 -225 386 -503 475 -825 36 -132
44 -179 71 -400 6 -47 6 -414 1 -465 -2 -19 -7 -78 -11 -130 -4 -52 -9 -108
-11 -125 -2 -16 -6 -52 -9 -80 -5 -45 -9 -78 -20 -155 -2 -14 -7 -45 -10 -70
-4 -25 -11 -64 -16 -88 -5 -23 -12 -59 -15 -80 -3 -20 -18 -89 -34 -152 -16
-63 -32 -126 -36 -140 -3 -14 -9 -34 -13 -45 -14 -37 -42 -120 -46 -135 -8
-35 -42 -114 -106 -248 -216 -450 -545 -745 -1010 -907 -89 -31 -222 -69 -284
-81 -11 -2 -42 -8 -70 -14 -27 -5 -66 -12 -85 -14 -19 -3 -46 -7 -60 -10 -14
-2 -54 -7 -90 -11 -36 -4 -76 -9 -90 -11 -198 -25 -1007 -25 -1520 1 -41 2
-210 7 -375 10 -813 15 -894 18 -1215 41 -41 3 -101 7 -135 9 -33 2 -91 6
-130 9 -38 3 -110 8 -160 11 -49 3 -112 8 -140 10 -27 2 -97 7 -155 10 -58 4
-134 8 -170 10 -356 22 -506 26 -825 27 -254 0 -445 -5 -610 -17 -33 -3 -96
-7 -140 -11 -44 -3 -91 -7 -105 -9 -14 -2 -54 -7 -90 -10 -294 -29 -632 -94
-980 -189 -220 -60 -539 -183 -780 -299 -116 -56 -302 -155 -350 -187 -8 -5
-28 -17 -45 -26 -116 -64 -406 -269 -575 -407 -259 -212 -586 -539 -775 -777
-33 -41 -62 -77 -65 -80 -39 -37 -267 -348 -403 -550 -247 -370 -461 -769
-637 -1190 -160 -385 -316 -904 -364 -1214 -4 -21 -8 -48 -11 -60 -2 -12 -7
-38 -10 -58 -6 -48 -13 -98 -20 -145 -3 -21 -8 -58 -11 -83 -3 -25 -7 -58 -9
-75 -8 -70 -25 -465 -19 -465 1 0 24 9 51 21 57 24 584 202 663 223 30 8 107
30 170 49 393 118 1057 280 1435 351 11 2 79 15 150 29 189 37 489 90 585 102
25 3 52 8 60 10 8 3 35 7 59 10 23 3 55 7 70 9 54 10 238 35 291 41 30 3 66 8
80 10 33 6 84 12 205 25 55 6 118 13 140 16 22 3 63 7 90 9 75 7 166 15 205
20 19 2 78 7 130 10 52 3 106 8 120 10 23 3 147 11 315 20 39 2 129 7 200 11
175 10 1274 11 1505 1 102 -4 232 -10 290 -12 231 -8 440 -17 535 -20 88 -4
218 -9 550 -20 732 -25 1750 -25 2215 0 185 10 287 16 335 20 28 2 88 7 135
10 47 3 108 8 135 10 101 10 161 16 195 20 19 2 62 6 95 10 33 3 71 8 85 10
14 2 52 6 85 10 54 5 353 49 415 61 14 2 43 7 65 10 64 10 360 70 485 99 970
228 1787 608 2465 1149 244 194 541 476 740 701 48 55 102 116 119 135 173
193 545 696 640 865 9 17 24 42 34 56 98 150 324 580 424 809 179 407 332 859
443 1310 15 61 94 422 99 450 3 19 10 60 16 90 21 111 53 301 65 395 2 11 6
38 9 60 7 51 13 105 21 175 4 30 8 66 10 80 2 14 6 59 10 100 3 41 8 91 10
110 4 37 14 168 21 273 2 34 6 93 8 130 5 71 16 284 22 422 4 98 4 601 -1 670
-4 67 -16 220 -20 270 -11 108 -17 162 -20 185 -2 14 -7 50 -10 80 -4 30 -9
62 -10 70 -2 8 -8 51 -15 95 -12 79 -15 96 -25 145 -2 14 -7 39 -10 55 -11 67
-17 97 -52 245 -140 608 -370 1201 -672 1731 -105 184 -88 157 -217 354 -247
378 -502 690 -829 1012 -234 231 -412 385 -650 561 -60 45 -114 86 -120 90
-32 25 -288 191 -390 252 -286 174 -604 330 -942 464 -148 59 -408 151 -455
162 -5 1 -9 2 -10 4 -2 1 -10 3 -19 5 -8 1 -53 14 -100 28 -69 21 -287 79
-349 92 -88 19 -333 67 -360 71 -19 2 -46 6 -60 9 -46 9 -86 15 -201 29 -374
49 -528 54 -1729 61 -443 3 -857 7 -920 9 -300 12 -420 17 -480 21 -36 3 -101
7 -145 10 -127 8 -261 19 -345 29 -62 7 -217 25 -265 31 -22 2 -58 7 -80 11
-22 3 -51 7 -65 9 -38 5 -113 17 -135 21 -11 2 -47 9 -80 14 -33 5 -71 12 -85
15 -14 3 -38 8 -55 11 -16 3 -50 10 -75 15 -25 6 -58 13 -75 16 -83 13 -413
103 -583 159 -57 19 -148 45 -202 59 -225 57 -453 159 -660 294 -77 50 -281
192 -305 212 -11 10 -56 45 -100 80 -174 137 -369 352 -468 516 -41 67 -137
256 -137 269 0 4 -9 26 -19 48 -38 81 -84 245 -115 411 -16 88 -24 341 -12
410 2 17 8 59 11 95 4 36 11 73 16 83 6 9 8 17 5 17 -6 0 39 169 66 245 34 99
152 334 219 435 339 518 917 964 1589 1225 115 45 367 127 428 140 9 2 37 8
62 14 74 16 192 39 245 46 162 22 213 25 620 40 154 6 1009 6 1315 0 1269 -23
2212 -23 2650 0 191 10 302 16 360 20 181 12 420 33 610 56 47 5 103 12 125
14 82 10 242 34 265 40 8 2 35 7 60 10 62 8 296 53 345 66 22 6 51 13 65 15
51 9 360 95 432 120 218 77 309 114 463 189 191 94 342 189 490 308 55 44 102
83 105 86 3 3 39 35 80 71 279 242 597 559 810 810 12 14 31 36 43 50 240 271
591 779 781 1130 48 88 177 348 216 434 154 343 294 789 354 1131 3 17 8 41
10 55 8 41 30 211 42 320 8 79 13 482 7 528 -3 17 -10 32 -17 31 -6 0 -60 -14
-121 -30z"/>
<path d="M23337 7723 c-1 -1 -47 -4 -102 -8 -132 -9 -205 -14 -290 -20 -38 -3
-101 -8 -140 -10 -38 -2 -99 -6 -135 -9 -36 -3 -99 -8 -140 -10 -203 -15 -239
-17 -295 -21 -33 -3 -94 -7 -135 -10 -41 -3 -104 -8 -139 -11 -35 -2 -101 -7
-145 -9 -45 -3 -108 -7 -141 -10 -33 -2 -96 -7 -140 -10 -44 -3 -107 -7 -140
-10 -113 -8 -210 -15 -280 -20 -38 -3 -104 -7 -145 -10 -41 -3 -106 -7 -145
-10 -38 -3 -99 -7 -135 -10 -36 -3 -105 -8 -155 -11 -84 -6 -133 -11 -145 -13
-3 -1 -5 -1571 -5 -3491 l0 -3490 25 -1 c47 -1 168 2 197 6 15 2 66 6 113 10
47 4 88 9 91 11 4 2 27 6 50 9 165 20 464 102 659 182 706 289 1266 821 1601
1521 27 56 49 108 49 115 0 7 4 17 9 22 8 10 64 163 95 260 9 28 29 106 45
175 35 146 42 187 56 295 4 33 9 67 10 75 15 80 18 531 19 2377 l1 2142 -33
-2 c-19 -1 -34 -3 -35 -4z"/>
<path d="M16818 7635 c-2 -2 -77 -6 -168 -10 -154 -6 -244 -10 -280 -14 -13
-1 -15 -399 -15 -3521 l0 -3520 35 -1 c94 -2 415 22 415 31 0 1 14 3 30 5 17
2 46 7 65 10 19 4 45 9 58 11 109 21 317 81 457 132 868 321 1557 1056 1826
1945 38 126 64 225 74 290 3 17 8 43 10 57 11 53 13 69 20 121 3 30 8 65 10
79 14 100 17 443 17 2238 -1 1115 -1 2041 -1 2058 -1 17 -6 31 -13 31 -42 1
-442 15 -538 19 -63 2 -169 6 -235 9 -139 4 -370 14 -535 22 -125 5 -1227 13
-1232 8z"/>
</g>
</svg>
